<svg width="42" height="42" viewBox="0 0 42 42" fill="none" xmlns="http://www.w3.org/2000/svg">
<path fill-rule="evenodd" clip-rule="evenodd" d="M39.2505 35.0134C39.2505 35.0134 8.29634 35.0007 8.29029 35.0008C7.68112 34.9927 7.35212 35.0395 6.54132 35.4054L1.52949 37.6655C1.19358 37.8157 0.985034 38.1374 0.985352 38.505C0.98567 38.8687 1.19962 39.1989 1.52711 39.3446C3.17082 40.0881 6.54108 41.6079 6.54108 41.6079C7.29989 41.9503 7.6288 41.9887 8.16793 41.9887L20.3009 42C20.6302 42 20.8972 41.7302 20.8972 41.3974C20.8972 41.0647 20.6302 40.7949 20.3009 40.7949C20.3009 40.7949 8.95361 40.7952 8.90448 40.7956V39.1092H35.2516V40.7949H23.2618C22.9324 40.7949 22.6655 41.0647 22.6655 41.3974C22.6655 41.7302 22.9324 42 23.2618 42H39.2505C40.5955 42 41.6899 40.8961 41.6899 39.5393V37.4741C41.6898 36.1173 40.5955 35.0134 39.2505 35.0134ZM4.44546 37.6702V39.3424L3.87112 39.0833C3.44499 38.891 3.01888 38.6988 2.59217 38.506L4.44546 37.6702ZM5.63805 37.1324V39.8806C6.07335 40.0769 7.53443 40.7243 7.71189 40.7655V36.248C7.53443 36.2893 5.63805 37.1324 5.63805 37.1324ZM8.90456 37.9042V36.2178C8.95369 36.2182 9.00426 36.2185 9.05793 36.2185H35.2517V37.9042H8.90456ZM39.2505 40.7949C39.9379 40.7949 40.4972 40.2317 40.4972 39.5393V37.474C40.4972 36.7817 39.9379 36.2185 39.2505 36.2185H36.4442V40.7949H39.2505Z" fill="black"/>
<path fill-rule="evenodd" clip-rule="evenodd" d="M2.04028 32L20.783 31.9977C21.122 31.9977 21.3968 31.7241 21.3967 31.3867C21.3967 31.0493 21.1218 30.7758 20.7828 30.7759L2.21306 30.7781V5.84759H4.66725V26.2707C4.66725 26.8252 5.12085 27.2762 5.67847 27.2762H31.1327C31.5534 27.2762 31.9191 27.0502 32.0645 26.7004C32.2095 26.3515 32.1135 25.9619 31.8075 25.6581L11.8595 5.84759H34.4374V25.2193C34.4374 25.7901 34.9044 26.2544 35.4785 26.2544H38.1843C39.4404 26.2544 40.4622 27.2686 40.4622 28.5151C40.4622 29.7617 39.4404 30.7758 38.1843 30.7758H23.6011C23.262 30.7758 22.9873 31.0493 22.9873 31.3867C22.9873 31.7241 23.262 31.9976 23.6011 31.9976H38.1842C40.1172 31.9976 41.6899 30.4354 41.6899 28.5151V5.61079C41.6899 3.68923 40.1172 2.12599 38.1842 2.12599H35.4784C34.9043 2.12599 34.4373 2.58932 34.4373 3.15886V4.62582H10.6291L6.29355 0.320096C5.98679 0.0154475 5.59368 -0.0787979 5.24182 0.0678242C4.88987 0.214609 4.6643 0.579047 4.66725 0.992032V4.62574H2.0402C1.45859 4.62574 0.985352 5.09729 0.985352 5.67693V30.9489C0.985352 31.5284 1.45859 32 2.04028 32ZM35.6651 3.34776H38.1842C39.4403 3.34776 40.4621 4.36287 40.4621 5.61071V25.87C39.849 25.3481 39.053 25.0325 38.1842 25.0325H35.6651V3.34776ZM30.4681 26.0545L5.89496 1.65045V26.0545H8.52839V25.1965C8.52839 24.8591 8.80323 24.5856 9.14225 24.5856C9.48126 24.5856 9.7561 24.8591 9.7561 25.1965V26.0545H12.3917V24.3891C12.3917 24.0517 12.6665 23.7782 13.0055 23.7782C13.3445 23.7782 13.6194 24.0517 13.6194 24.3891V26.0545H16.2527V25.1965C16.2527 24.8591 16.5276 24.5856 16.8666 24.5856C17.2056 24.5856 17.4804 24.8591 17.4804 25.1965V26.0545H20.1162V24.3891C20.1162 24.0517 20.391 23.7782 20.73 23.7782C21.069 23.7782 21.3439 24.0517 21.3439 24.3891V26.0545H23.9772V25.1965C23.9772 24.8591 24.252 24.5856 24.5911 24.5856C24.9302 24.5856 25.2049 24.8591 25.2049 25.1965V26.0545H30.4681Z" fill="black"/>
<path fill-rule="evenodd" clip-rule="evenodd" d="M17.5529 22H11.3986C10.9601 22 10.6768 21.7074 10.6768 21.2544V14.9056C10.6768 14.666 10.6768 14.2202 11.0767 14.0496C11.4703 13.8818 11.7538 14.1763 11.9607 14.3914L18.0532 20.6744C18.2605 20.8881 18.5444 21.1808 18.3818 21.587C18.2165 22 17.7848 22 17.5529 22ZM16.6525 20.8518L11.7878 15.8349V20.8518H16.6525Z" fill="black"/>
</svg>
