<svg width="38" height="26" viewBox="0 0 38 26" fill="none" xmlns="http://www.w3.org/2000/svg">
<path fill-rule="evenodd" clip-rule="evenodd" d="M23.4443 19.1299H36.3758C36.8065 19.1299 37.157 19.5272 37.157 20.0156V22.1081V22.8288V25.3956C37.157 25.7295 36.9185 26 36.6243 26C36.3301 26 36.0917 25.7295 36.0917 25.3956V23.4332H30.3728C30.0786 23.4332 29.8401 23.1627 29.8401 22.8288C29.8401 22.495 30.0786 22.2245 30.3728 22.2245H36.0917V22.1081V20.3387H23.4443V22.2245H28.2041C28.4984 22.2245 28.7368 22.495 28.7368 22.8288C28.7368 23.1627 28.4984 23.4332 28.2041 23.4332H23.4443V24.54C23.4443 25.1489 23.0064 25.6442 22.4681 25.6442H12.1194C5.87482 25.6442 0.794434 19.8922 0.794434 12.8221C0.794434 5.75199 5.87482 0 12.1194 0C17.1076 0 21.3527 3.67052 22.8589 8.75128H24.7845C25.248 8.75128 25.6249 9.13581 25.7224 9.70825L26.4515 14.0052C26.5137 14.367 26.45 14.702 26.272 14.9471C26.1011 15.1824 25.8405 15.312 25.5384 15.312H23.4443V19.1299ZM25.3834 14.1033L24.6803 9.9599H23.1596C23.3457 10.8805 23.4443 11.8386 23.4443 12.8221V14.1033H25.3834ZM1.87352 13.4265H3.81409L3.88383 13.427C3.89697 13.4271 3.91074 13.4273 3.92509 13.4273C4.06884 13.4273 4.26556 13.4122 4.42841 13.2245C4.60511 13.0209 4.59986 12.7793 4.59695 12.6495C4.59602 12.6075 4.5951 12.5641 4.59695 12.507C4.649 10.8882 5.10368 9.33025 5.91189 8.00148C6.079 7.72678 6.01814 7.35039 5.77603 7.16078C5.53399 6.97117 5.20211 7.04023 5.03507 7.31493C4.15229 8.76643 3.63852 10.4569 3.54293 12.2177H1.87352C2.14311 6.29357 6.35293 1.52861 11.5867 1.22418V3.11355C9.90907 3.22918 8.31643 3.89099 6.96797 5.03539C6.73239 5.23523 6.68424 5.61404 6.86044 5.88132C6.96505 6.04007 7.12521 6.12371 7.28742 6.12371C7.39842 6.12371 7.51035 6.08455 7.60602 6.00332C8.83709 4.9586 10.3007 4.37302 11.8393 4.30976C11.8899 4.30765 11.9299 4.30866 11.9615 4.30945L11.9642 4.30952L11.9668 4.30957C12.0828 4.31193 12.2955 4.31626 12.4736 4.11669C12.6553 3.91325 12.6536 3.67147 12.6523 3.49484V3.49477L12.652 1.22418C18.0626 1.53901 22.3789 6.62065 22.3789 12.822V19.7341V21.3362H12.528C12.0089 21.3362 11.5867 21.8149 11.5867 22.4032V24.4199C6.353 24.1155 2.14319 19.3506 1.87352 13.4265ZM12.652 24.4355H22.379V22.8288V22.545H12.652V24.4355Z" fill="black"/>
<path fill-rule="evenodd" clip-rule="evenodd" d="M17.2518 19.9333H12.1586C8.81635 19.9333 6.09717 17.0169 6.09717 13.4322C6.09717 9.84872 8.81635 6.93333 12.1586 6.93333C15.4998 6.93333 18.218 9.8488 18.218 13.4322V18.8937C18.218 19.4669 17.7845 19.9333 17.2518 19.9333ZM17.141 13.4322C17.141 10.487 14.9059 8.09082 12.1586 8.09082C9.41022 8.09082 7.17419 10.487 7.17419 13.4322C7.17419 16.3787 9.41022 18.7759 12.1586 18.7759H17.141V13.4322Z" fill="black"/>
<path fill-rule="evenodd" clip-rule="evenodd" d="M14.0939 15.6H10.2214C9.61819 15.6 9.12744 15.1112 9.12744 14.5103V12.354C9.12744 11.7545 9.61819 11.2667 10.2214 11.2667H14.0939C14.6971 11.2667 15.1879 11.7545 15.1879 12.354V14.5103C15.1879 15.1112 14.6971 15.6 14.0939 15.6ZM13.9711 12.4773H10.3442V14.3894H13.9711V12.4773Z" fill="black"/>
</svg>
