<svg width="39" height="34" viewBox="0 0 39 34" fill="none" xmlns="http://www.w3.org/2000/svg">
<path fill-rule="evenodd" clip-rule="evenodd" d="M36.2677 9.63027H36.8519C37.7661 9.63027 38.5098 10.4676 38.5098 11.4969V23.0395C38.5098 24.755 37.2703 26.1506 35.7467 26.1506H34.0256V32.2521C34.0256 33.2158 33.3291 34 32.473 34C31.6622 34 30.982 33.2866 30.9245 32.3759L30.5314 26.1505H14.4895C14.1843 26.1505 13.9368 25.8719 13.9368 25.5283C13.9368 25.1847 14.1843 24.9061 14.4895 24.9061H35.7466C36.6608 24.9061 37.4045 24.0687 37.4045 23.0394V11.4968C37.4045 11.1537 37.1566 10.8746 36.8519 10.8746H34.5782C34.3116 10.8746 34.0885 11.0882 34.0368 11.3716C34.0295 11.412 34.0256 11.4539 34.0256 11.4968V14.4762H34.9156C35.6583 14.4762 36.2625 15.1565 36.2625 15.9927V19.5853C36.2625 20.4215 35.6583 21.1018 34.9156 21.1018H4.37792C3.63526 21.1018 3.03105 20.4216 3.03105 19.5854V15.9928C3.03105 15.1566 3.63526 14.4763 4.37792 14.4763H5.26787V11.4969C5.26787 11.454 5.26396 11.4121 5.25659 11.3716C5.20502 11.0884 4.98183 10.8747 4.71524 10.8747H2.44158C2.13682 10.8747 1.88895 11.1538 1.88895 11.4969V23.0394C1.88895 24.0687 2.63264 24.9061 3.54684 24.9061H11.9106C12.2158 24.9061 12.4632 25.1847 12.4632 25.5283C12.4632 25.8719 12.2158 26.1505 11.9106 26.1505H8.76196L8.36885 32.3759C8.31138 33.2866 7.63113 34 6.82031 34C5.96433 34 5.26787 33.2159 5.26787 32.2521V26.1506H3.54684C2.0232 26.1506 0.783691 24.755 0.783691 23.0395V11.4969C0.783691 10.4676 1.52738 9.63027 2.44158 9.63027H3.02582V2.86218C3.02582 1.284 4.16622 0 5.56791 0H17.6573C18.4624 0 19.1806 0.424017 19.6468 1.08356C20.1129 0.424017 20.8311 0 21.6362 0H33.7255C34.9666 0 36.0201 0.998028 36.2306 2.37328C36.2825 2.71193 36.0807 3.03374 35.7799 3.09215C35.4791 3.15038 35.1933 2.92332 35.1414 2.58467C35.0226 1.80798 34.4271 1.24442 33.7256 1.24442H21.6361C20.8439 1.24442 20.1993 1.97017 20.1993 2.86218V14.5007L20.2089 14.4986L20.2184 14.4964L20.2243 14.4951C20.3186 14.4733 20.4179 14.4734 25.3309 14.4749H25.3312H25.3315H25.3318H25.3324H25.3331H25.3341C27.1364 14.4755 29.5861 14.4763 32.9203 14.4763V11.4969C32.9203 10.4676 33.664 9.63027 34.5782 9.63027H35.1624V5.38064C35.1624 5.03702 35.4099 4.75843 35.7151 4.75843C36.0203 4.75843 36.2677 5.03702 36.2677 5.38064V9.63027ZM7.41043 32.2862L7.74288 26.122H6.64406V32.2504C6.64406 32.5292 6.81613 32.7561 7.02772 32.7561C7.22811 32.7561 7.3962 32.5497 7.41043 32.2862ZM35.2134 19.6298C35.2134 19.7802 35.1045 19.9024 34.9708 19.9024H20.1962V18.2513V16.0287C20.1962 15.8783 20.305 15.7561 20.4387 15.7561H34.9708C35.1045 15.7561 35.2134 15.8784 35.2134 16.0287V19.6298ZM4.08015 9.63735H4.6665C5.584 9.63735 6.33038 10.4754 6.33038 11.5057V14.4878C9.6899 14.4878 12.1561 14.487 13.9685 14.4865H13.9685C18.9078 14.485 18.992 14.4849 19.0708 14.5057L19.0749 14.5068C19.0811 14.5084 19.0878 14.5103 19.0973 14.5122V2.86312C19.0973 1.97031 18.4504 1.2439 17.6553 1.2439H5.52218C4.72706 1.2439 4.08015 1.97031 4.08015 2.86312V9.63735ZM4.08015 19.6299V16.0288C4.08015 15.8784 4.18897 15.7561 4.32272 15.7561H18.8548C18.9885 15.7561 19.0973 15.8784 19.0973 16.0288V18.2514V19.9024H4.32272C4.18897 19.9024 4.08015 19.7802 4.08015 19.6299ZM32.2657 32.7561C32.4773 32.7561 32.6494 32.5293 32.6494 32.2504V26.122H31.5506L31.8831 32.2862C31.8973 32.5497 32.0654 32.7561 32.2657 32.7561Z" fill="black"/>
</svg>
